<mxfile host="app.diagrams.net" modified="2022-05-12T13:29:28.216Z" agent="5.0 (Windows NT 10.0; Win64; x64) AppleWebKit/537.36 (KHTML, like Gecko) Chrome/101.0.4951.54 Safari/537.36" etag="Zs33wcIodSO6O5nEkkbd" version="18.0.3" type="github">
  <diagram id="pyGea9en-zFXt6wDnnhM" name="Page-1">
    <mxGraphModel dx="1038" dy="581" grid="1" gridSize="10" guides="1" tooltips="1" connect="1" arrows="1" fold="1" page="1" pageScale="1" pageWidth="827" pageHeight="1169" math="0" shadow="0">
      <root>
        <mxCell id="0" />
        <mxCell id="1" parent="0" />
        <mxCell id="UeRHyoclIfPQxY-qO908-1" value="" style="rounded=0;whiteSpace=wrap;html=1;" vertex="1" parent="1">
          <mxGeometry x="40" y="40" width="760" height="590" as="geometry" />
        </mxCell>
        <mxCell id="UeRHyoclIfPQxY-qO908-2" value="&lt;span style=&quot;font-size: 10px;&quot;&gt;Image Logo&lt;/span&gt;" style="rounded=0;whiteSpace=wrap;html=1;" vertex="1" parent="1">
          <mxGeometry x="90" y="50" width="80" height="40" as="geometry" />
        </mxCell>
        <mxCell id="UeRHyoclIfPQxY-qO908-3" value="Hbutton" style="rounded=0;whiteSpace=wrap;html=1;" vertex="1" parent="1">
          <mxGeometry x="440" y="60" width="50" height="20" as="geometry" />
        </mxCell>
        <mxCell id="UeRHyoclIfPQxY-qO908-4" value="Pbutton" style="rounded=0;whiteSpace=wrap;html=1;" vertex="1" parent="1">
          <mxGeometry x="500" y="60" width="50" height="20" as="geometry" />
        </mxCell>
        <mxCell id="UeRHyoclIfPQxY-qO908-5" value="Abutton" style="rounded=0;whiteSpace=wrap;html=1;" vertex="1" parent="1">
          <mxGeometry x="560" y="60" width="50" height="20" as="geometry" />
        </mxCell>
        <mxCell id="UeRHyoclIfPQxY-qO908-6" value="ACbutton" style="rounded=0;whiteSpace=wrap;html=1;" vertex="1" parent="1">
          <mxGeometry x="620" y="60" width="60" height="20" as="geometry" />
        </mxCell>
        <mxCell id="UeRHyoclIfPQxY-qO908-7" value="Cartbtn" style="rounded=0;whiteSpace=wrap;html=1;" vertex="1" parent="1">
          <mxGeometry x="690" y="60" width="60" height="20" as="geometry" />
        </mxCell>
        <mxCell id="UeRHyoclIfPQxY-qO908-8" value="" style="rounded=0;whiteSpace=wrap;html=1;" vertex="1" parent="1">
          <mxGeometry x="40" y="540" width="760" height="90" as="geometry" />
        </mxCell>
        <mxCell id="UeRHyoclIfPQxY-qO908-9" value="Tải Ứng Dụng Của Chúng Tôi" style="text;html=1;strokeColor=none;fillColor=none;align=center;verticalAlign=middle;whiteSpace=wrap;rounded=0;fontSize=10;" vertex="1" parent="1">
          <mxGeometry x="40" y="550" width="140" height="10" as="geometry" />
        </mxCell>
        <mxCell id="UeRHyoclIfPQxY-qO908-10" value="Tải Ứng Dụng bằng Android và IOS dành cho điện thoại" style="text;html=1;strokeColor=none;fillColor=none;align=center;verticalAlign=middle;whiteSpace=wrap;rounded=0;fontSize=10;" vertex="1" parent="1">
          <mxGeometry x="38" y="564" width="260" height="10" as="geometry" />
        </mxCell>
        <mxCell id="UeRHyoclIfPQxY-qO908-11" value="TextSuggestion" style="rounded=0;whiteSpace=wrap;html=1;fontSize=10;" vertex="1" parent="1">
          <mxGeometry x="80" y="585" width="80" height="25" as="geometry" />
        </mxCell>
        <mxCell id="UeRHyoclIfPQxY-qO908-12" value="TextSuggestion2" style="rounded=0;whiteSpace=wrap;html=1;fontSize=10;" vertex="1" parent="1">
          <mxGeometry x="170" y="585" width="80" height="25" as="geometry" />
        </mxCell>
        <mxCell id="UeRHyoclIfPQxY-qO908-13" value="Image Logo" style="rounded=0;whiteSpace=wrap;html=1;fontSize=10;" vertex="1" parent="1">
          <mxGeometry x="350" y="564" width="90" height="40" as="geometry" />
        </mxCell>
        <mxCell id="UeRHyoclIfPQxY-qO908-14" value="Đường Dẫn" style="text;html=1;strokeColor=none;fillColor=none;align=center;verticalAlign=middle;whiteSpace=wrap;rounded=0;fontSize=10;" vertex="1" parent="1">
          <mxGeometry x="515" y="544" width="60" height="30" as="geometry" />
        </mxCell>
        <mxCell id="UeRHyoclIfPQxY-qO908-15" value="TextLink1" style="rounded=0;whiteSpace=wrap;html=1;fontSize=10;" vertex="1" parent="1">
          <mxGeometry x="510" y="574" width="70" height="21" as="geometry" />
        </mxCell>
        <mxCell id="UeRHyoclIfPQxY-qO908-16" value="TextLink2" style="rounded=0;whiteSpace=wrap;html=1;fontSize=10;" vertex="1" parent="1">
          <mxGeometry x="510" y="600" width="70" height="21" as="geometry" />
        </mxCell>
        <mxCell id="UeRHyoclIfPQxY-qO908-17" value="Follow Chúng tôi" style="text;html=1;strokeColor=none;fillColor=none;align=center;verticalAlign=middle;whiteSpace=wrap;rounded=0;fontSize=10;" vertex="1" parent="1">
          <mxGeometry x="660" y="544" width="80" height="30" as="geometry" />
        </mxCell>
        <mxCell id="UeRHyoclIfPQxY-qO908-18" value="TextLinkApp1" style="rounded=0;whiteSpace=wrap;html=1;fontSize=10;" vertex="1" parent="1">
          <mxGeometry x="665" y="574" width="70" height="21" as="geometry" />
        </mxCell>
        <mxCell id="UeRHyoclIfPQxY-qO908-19" value="TextLinkApp2" style="rounded=0;whiteSpace=wrap;html=1;fontSize=10;" vertex="1" parent="1">
          <mxGeometry x="665" y="600" width="70" height="21" as="geometry" />
        </mxCell>
        <mxCell id="UeRHyoclIfPQxY-qO908-20" value="Sản Phẩm Liên Quan" style="text;html=1;strokeColor=none;fillColor=none;align=center;verticalAlign=middle;whiteSpace=wrap;rounded=0;fontSize=12;" vertex="1" parent="1">
          <mxGeometry x="50" y="390" width="120" height="30" as="geometry" />
        </mxCell>
        <mxCell id="UeRHyoclIfPQxY-qO908-21" value="btnSeeMore" style="rounded=0;whiteSpace=wrap;html=1;fontSize=11;" vertex="1" parent="1">
          <mxGeometry x="670" y="510" width="120" height="20" as="geometry" />
        </mxCell>
        <mxCell id="UeRHyoclIfPQxY-qO908-30" value="ProductItem10" style="rounded=0;whiteSpace=wrap;html=1;fontSize=11;" vertex="1" parent="1">
          <mxGeometry x="99" y="430" width="120" height="60" as="geometry" />
        </mxCell>
        <mxCell id="UeRHyoclIfPQxY-qO908-31" value="ProductItem11" style="rounded=0;whiteSpace=wrap;html=1;fontSize=11;" vertex="1" parent="1">
          <mxGeometry x="269" y="430" width="120" height="60" as="geometry" />
        </mxCell>
        <mxCell id="UeRHyoclIfPQxY-qO908-32" value="ProductItem12" style="rounded=0;whiteSpace=wrap;html=1;fontSize=11;" vertex="1" parent="1">
          <mxGeometry x="439" y="430" width="120" height="60" as="geometry" />
        </mxCell>
        <mxCell id="UeRHyoclIfPQxY-qO908-33" value="ProductItem13" style="rounded=0;whiteSpace=wrap;html=1;fontSize=11;" vertex="1" parent="1">
          <mxGeometry x="609" y="430" width="120" height="60" as="geometry" />
        </mxCell>
        <mxCell id="UeRHyoclIfPQxY-qO908-34" value="btnNextPage" style="rounded=0;whiteSpace=wrap;html=1;fontSize=11;" vertex="1" parent="1">
          <mxGeometry x="59" y="510" width="191" height="20" as="geometry" />
        </mxCell>
        <mxCell id="UeRHyoclIfPQxY-qO908-35" value="ImageProduct" style="rounded=0;whiteSpace=wrap;html=1;fontSize=11;" vertex="1" parent="1">
          <mxGeometry x="90" y="120" width="320" height="190" as="geometry" />
        </mxCell>
        <mxCell id="UeRHyoclIfPQxY-qO908-36" value="image conversion1" style="rounded=0;whiteSpace=wrap;html=1;fontSize=11;" vertex="1" parent="1">
          <mxGeometry x="90" y="315" width="100" height="40" as="geometry" />
        </mxCell>
        <mxCell id="UeRHyoclIfPQxY-qO908-37" value="image conversion2" style="rounded=0;whiteSpace=wrap;html=1;fontSize=11;" vertex="1" parent="1">
          <mxGeometry x="198" y="315" width="100" height="40" as="geometry" />
        </mxCell>
        <mxCell id="UeRHyoclIfPQxY-qO908-38" value="image conversion3" style="rounded=0;whiteSpace=wrap;html=1;fontSize=11;" vertex="1" parent="1">
          <mxGeometry x="310" y="315" width="100" height="40" as="geometry" />
        </mxCell>
        <mxCell id="UeRHyoclIfPQxY-qO908-39" value="lblProductName" style="text;html=1;strokeColor=none;fillColor=none;align=center;verticalAlign=middle;whiteSpace=wrap;rounded=0;" vertex="1" parent="1">
          <mxGeometry x="439" y="120" width="90" height="30" as="geometry" />
        </mxCell>
        <mxCell id="UeRHyoclIfPQxY-qO908-40" value="lblPrice" style="text;html=1;strokeColor=none;fillColor=none;align=center;verticalAlign=middle;whiteSpace=wrap;rounded=0;" vertex="1" parent="1">
          <mxGeometry x="440" y="160" width="40" height="30" as="geometry" />
        </mxCell>
        <mxCell id="UeRHyoclIfPQxY-qO908-42" value="cbbSize" style="rounded=0;whiteSpace=wrap;html=1;" vertex="1" parent="1">
          <mxGeometry x="439" y="210" width="81" height="20" as="geometry" />
        </mxCell>
        <mxCell id="UeRHyoclIfPQxY-qO908-43" value="txtquantity" style="rounded=0;whiteSpace=wrap;html=1;" vertex="1" parent="1">
          <mxGeometry x="439" y="250" width="81" height="20" as="geometry" />
        </mxCell>
        <mxCell id="UeRHyoclIfPQxY-qO908-44" value="btnAddCart" style="rounded=0;whiteSpace=wrap;html=1;" vertex="1" parent="1">
          <mxGeometry x="545" y="250" width="80" height="20" as="geometry" />
        </mxCell>
        <mxCell id="UeRHyoclIfPQxY-qO908-46" value="lblProductDetails" style="text;html=1;strokeColor=none;fillColor=none;align=center;verticalAlign=middle;whiteSpace=wrap;rounded=0;" vertex="1" parent="1">
          <mxGeometry x="440" y="300" width="90" height="30" as="geometry" />
        </mxCell>
      </root>
    </mxGraphModel>
  </diagram>
</mxfile>
